<svg version="1.1" xmlns="http://www.w3.org/2000/svg" viewBox="0 0 64 64"><defs><style>.cls-1{fill:#fafafa;}</style></defs><path class="cls-1" d="M32.1.42A31.57,31.57,0,1,0,63.67,32,31.57,31.57,0,0,0,32.1.42ZM55.38,43.85l-.68,4.56-4.13,2.05-2,4.13L44,55.26l-3.23,3.3-4.54-.77L32.1,59.92,28,57.79l-4.54.77-3.23-3.3-4.56-.67-2-4.13L9.5,48.41l-.68-4.56L5.53,40.62l.77-4.54L4.17,32,6.3,27.9l-.77-4.55,3.29-3.22.68-4.56,4.13-2.05,2-4.13,4.56-.68,3.23-3.3L28,6.19,32.1,4.05l4.09,2.14,4.54-.78L44,8.71l4.56.68,2,4.13,4.13,2.05.68,4.56,3.29,3.22L57.9,27.9,60,32,57.9,36.08l.77,4.54Z"/><path class="cls-1" d="M45.46,19.76H18.74a4.46,4.46,0,0,0-4.45,4.46V42a4.45,4.45,0,0,0,4.45,4.45H45.46A4.45,4.45,0,0,0,49.91,42V24.22A4.46,4.46,0,0,0,45.46,19.76ZM38.13,31.64l9.42-8.07a2,2,0,0,1,.13.65V42a2.15,2.15,0,0,1-.09.44ZM45.46,22a3,3,0,0,1,.41.08L32.1,33.88,18.33,22.07a3,3,0,0,1,.41-.08ZM16.61,42.46a2.15,2.15,0,0,1-.09-.44V24.22a2.35,2.35,0,0,1,.13-.65l9.42,8.07Zm2.13,1.79a2.28,2.28,0,0,1-.63-.13l9.65-11,3.62,3.1a1.1,1.1,0,0,0,1.44,0l3.62-3.1,9.65,11a2.21,2.21,0,0,1-.63.13Z"/></svg>
