<svg version="1.1" xmlns="http://www.w3.org/2000/svg" viewBox="0 0 64 64"><defs><style>.cls-1{opacity:0.75;}.cls-2{fill:#fff;}.cls-3,.cls-4,.cls-5{fill:none;stroke:#fff;stroke-miterlimit:10;}.cls-3{stroke-width:0.47px;}.cls-4{stroke-width:1.42px;}.cls-5{stroke-width:0.95px;}</style></defs><g class="cls-1"><path class="cls-2" d="M63.17,18.77l-18-18a.72.72,0,0,0-.5-.2H19.19a.68.68,0,0,0-.49.2l-18,18a.7.7,0,0,0-.2.5V44.74a.68.68,0,0,0,.2.49l18,18a.68.68,0,0,0,.49.2H44.66a.72.72,0,0,0,.5-.2l18-18a.68.68,0,0,0,.2-.49V19.27A.7.7,0,0,0,63.17,18.77ZM48.58,36.09c-.21,1-1.4,1.6-1.76,2.48s0,2.19-.48,3-1.85,1-2.5,1.72-.72,2.07-1.48,2.66-2.09.32-2.94.77-1.38,1.69-2.3,2-2.06-.41-3-.28-1.87,1.12-2.84,1.08-1.79-1.09-2.75-1.3-2.16.41-3,0-1.33-1.65-2.13-2.16-2.16-.35-2.87-1-.68-2-1.27-2.76-1.9-1.07-2.35-1.92,0-2.11-.25-3S15.17,35.74,15,34.77s.76-2,.8-2.93-.78-2-.57-3,1.4-1.6,1.76-2.48,0-2.19.48-3,1.85-1,2.5-1.73.72-2.06,1.48-2.65,2.09-.32,2.94-.77,1.38-1.69,2.3-2,2.06.41,3,.28,1.87-1.12,2.84-1.08,1.79,1.1,2.75,1.31,2.16-.41,3-.05,1.33,1.65,2.13,2.16,2.16.35,2.87,1,.68,2,1.27,2.76,1.91,1.06,2.35,1.92,0,2.1.25,3,1.43,1.65,1.56,2.61-.76,2-.8,2.93S48.79,35.13,48.58,36.09Z"/><path class="cls-3" d="M63.17,18.77l-18-18a.72.72,0,0,0-.5-.2H19.19a.68.68,0,0,0-.49.2l-18,18a.7.7,0,0,0-.2.5V44.74a.68.68,0,0,0,.2.49l18,18a.68.68,0,0,0,.49.2H44.66a.72.72,0,0,0,.5-.2l18-18a.68.68,0,0,0,.2-.49V19.27A.7.7,0,0,0,63.17,18.77ZM48.58,36.09c-.21,1-1.4,1.6-1.76,2.48s0,2.19-.48,3-1.85,1-2.5,1.72-.72,2.07-1.48,2.66-2.09.32-2.94.77-1.38,1.69-2.3,2-2.06-.41-3-.28-1.87,1.12-2.84,1.08-1.79-1.09-2.75-1.3-2.16.41-3,0-1.33-1.65-2.13-2.16-2.16-.35-2.87-1-.68-2-1.27-2.76-1.9-1.07-2.35-1.92,0-2.11-.25-3S15.17,35.74,15,34.77s.76-2,.8-2.93-.78-2-.57-3,1.4-1.6,1.76-2.48,0-2.19.48-3,1.85-1,2.5-1.73.72-2.06,1.48-2.65,2.09-.32,2.94-.77,1.38-1.69,2.3-2,2.06.41,3,.28,1.87-1.12,2.84-1.08,1.79,1.1,2.75,1.31,2.16-.41,3-.05,1.33,1.65,2.13,2.16,2.16.35,2.87,1,.68,2,1.27,2.76,1.91,1.06,2.35,1.92,0,2.1.25,3,1.43,1.65,1.56,2.61-.76,2-.8,2.93S48.79,35.13,48.58,36.09Z"/></g><g class="cls-1"><path class="cls-4" d="M28.21,25.36a1.66,1.66,0,1,1-1.27-2A1.66,1.66,0,0,1,28.21,25.36Z"/><path class="cls-4" d="M41.69,28.28a1.66,1.66,0,1,1-1.27-2A1.65,1.65,0,0,1,41.69,28.28Z"/><path class="cls-4" d="M25.4,38.31a1.66,1.66,0,1,1-1.27-2A1.66,1.66,0,0,1,25.4,38.31Z"/><path class="cls-4" d="M38.88,41.24a1.66,1.66,0,1,1-1.27-2A1.65,1.65,0,0,1,38.88,41.24Z"/><path class="cls-5" d="M23.38,30.57a1,1,0,1,1-1.38-.3A1,1,0,0,1,23.38,30.57Z"/><path class="cls-5" d="M35,23.1a1,1,0,1,1-1.37-.29A1,1,0,0,1,35,23.1Z"/><path class="cls-5" d="M30.55,41.71a1,1,0,0,1-.3,1.38,1,1,0,0,1-1.08-1.68A1,1,0,0,1,30.55,41.71Z"/><path class="cls-5" d="M42.15,34.25a1,1,0,0,1-1.68,1.08,1,1,0,0,1,1.68-1.08Z"/><path class="cls-4" d="M33.77,33.15a1.66,1.66,0,1,1-1.27-2A1.66,1.66,0,0,1,33.77,33.15Z"/></g></svg>
