<svg version="1.1" xmlns="http://www.w3.org/2000/svg" viewBox="0 0 64 64"><defs><style>.cls-1{opacity:0.75;}.cls-2{fill:#fff;}</style></defs><g class="cls-1"><path class="cls-2" d="M63.17,18.77l-18-18a.72.72,0,0,0-.5-.2H19.19a.72.72,0,0,0-.5.2l-18,18a.7.7,0,0,0-.2.5V44.74a.7.7,0,0,0,.2.49l18,18a.72.72,0,0,0,.5.2H44.66a.72.72,0,0,0,.5-.2l18-18a.7.7,0,0,0,.2-.49V19.27A.7.7,0,0,0,63.17,18.77ZM32.27,47.69a15.6,15.6,0,1,1,15.6-15.6A15.61,15.61,0,0,1,32.27,47.69Z"/><path class="cls-2" d="M40.73,23.63a2.16,2.16,0,0,0-3,0L32.27,29l-5.41-5.41a2.16,2.16,0,0,0-3.05,3.05l5.41,5.41L23.81,37.5a2.16,2.16,0,0,0,3.05,3l5.41-5.41,5.41,5.41a2.14,2.14,0,0,0,1.52.63,2.16,2.16,0,0,0,1.53-3.68l-5.41-5.41,5.41-5.41A2.16,2.16,0,0,0,40.73,23.63Z"/></g></svg>
