<svg version="1.1" xmlns="http://www.w3.org/2000/svg" viewBox="0 0 64 64"><defs><style>.cls-1{opacity:0.75;}.cls-2{fill:#fff;}</style></defs><g class="cls-1"><path class="cls-2" d="M63.17,18.77l-18-18a.72.72,0,0,0-.5-.2H19.19a.72.72,0,0,0-.5.2l-18,18a.7.7,0,0,0-.2.5V44.74a.7.7,0,0,0,.2.49l18,18a.72.72,0,0,0,.5.2H44.66a.72.72,0,0,0,.5-.2l18-18a.7.7,0,0,0,.2-.49V19.27A.7.7,0,0,0,63.17,18.77Zm-19,31.59a.51.51,0,0,1-.52.51h-.69a.51.51,0,0,1-.51-.51V48.88a.52.52,0,0,0-.52-.51h0a.51.51,0,0,0-.52.51v1.44a.52.52,0,0,1-.52.52h-.69a.52.52,0,0,1-.52-.52V48.88a.52.52,0,0,0-1,0v1.34a.52.52,0,0,1-.52.52H37.4a.52.52,0,0,1-.52-.52V43.41a6.33,6.33,0,0,0-2-4.64l-2.16-2-.62-.62c-.29.32-.59.63-.91.92L29,39a6.21,6.21,0,0,0-2,4.57v6.82a.51.51,0,0,1-.52.51h-.69a.51.51,0,0,1-.52-.51V49a.52.52,0,1,0-1,0v1.35a.51.51,0,0,1-.52.51H23a.51.51,0,0,1-.52-.51V49a.52.52,0,0,0-.52-.52.52.52,0,0,0-.52.52v1.31a.51.51,0,0,1-.51.51h-.69a.51.51,0,0,1-.52-.51V43.61a13.31,13.31,0,0,1,4.36-9.82l2.16-2a6.19,6.19,0,0,0,2-4.57v-6H26.69a.51.51,0,0,1-.42-.82l5.21-7.19a.51.51,0,0,1,.84,0l5.21,7.19a.51.51,0,0,1-.42.82H35.58v5.52a6.34,6.34,0,0,0,2,4.64l2.16,2a13.61,13.61,0,0,1,4.36,10Z"/></g></svg>
