<svg version="1.1" xmlns="http://www.w3.org/2000/svg" viewBox="0 0 64 64"><defs><style>.cls-1{fill:#f7931e;}.cls-2{fill:#fff;}</style></defs><circle class="cls-1" cx="32.1" cy="31.99" r="31.57"/><polygon class="cls-2" points="60.03 31.99 57.9 36.08 58.67 40.62 55.38 43.85 54.7 48.41 50.57 50.46 48.52 54.59 43.96 55.26 40.73 58.56 36.19 57.79 32.1 59.92 28.01 57.79 23.47 58.56 20.24 55.26 15.68 54.59 13.63 50.45 9.5 48.41 8.82 43.85 5.53 40.62 6.3 36.08 4.17 31.99 6.3 27.9 5.53 23.35 8.82 20.13 9.5 15.57 13.63 13.52 15.68 9.39 20.24 8.71 23.47 5.42 28.01 6.19 32.1 4.05 36.19 6.19 40.73 5.42 43.96 8.71 48.52 9.39 50.57 13.52 54.7 15.57 55.38 20.13 58.67 23.35 57.9 27.9 60.03 31.99"/><path class="cls-1" d="M48,28H46.35a14.82,14.82,0,0,0-1.49-3.46s0,0,0,0l1.15-1.15a2.17,2.17,0,0,0,0-3.07l-2.43-2.44a2.19,2.19,0,0,0-3.07,0L39.4,19l-.09.1a14.69,14.69,0,0,0-3.43-1.39c0-.06,0-.11,0-.16V15.92a2.19,2.19,0,0,0-2.18-2.18H30.28a2.18,2.18,0,0,0-2.17,2.18v1.63c0,.05,0,.1,0,.16A14.69,14.69,0,0,0,24.7,19.1l-.09-.1-1.15-1.16a2.19,2.19,0,0,0-3.07,0L18,20.28a2.17,2.17,0,0,0,0,3.07l1.15,1.15s0,0,0,0A14.82,14.82,0,0,0,17.66,28H16a2.17,2.17,0,0,0-2.17,2.17v3.44A2.18,2.18,0,0,0,16,35.79h1.51A15.27,15.27,0,0,0,19,39.42l-1,1a2.17,2.17,0,0,0,0,3.07l2.43,2.43a2.17,2.17,0,0,0,3.07,0l1-1a14.43,14.43,0,0,0,3.68,1.55v1.35A2.18,2.18,0,0,0,30.28,50h3.44a2.18,2.18,0,0,0,2.18-2.17V46.52A14.43,14.43,0,0,0,39.58,45l1,1a2.17,2.17,0,0,0,3.07,0l2.43-2.43a2.17,2.17,0,0,0,0-3.07l-1-1a15,15,0,0,0,1.44-3.62H48a2.18,2.18,0,0,0,2.17-2.18V30.17A2.17,2.17,0,0,0,48,28ZM32,38.55a6.43,6.43,0,1,1,6.42-6.43A6.43,6.43,0,0,1,32,38.55Z"/><path class="cls-2" d="M32,20.28A11.84,11.84,0,1,0,43.85,32.12,11.84,11.84,0,0,0,32,20.28Zm0,22A10.15,10.15,0,1,1,42.15,32.12,10.15,10.15,0,0,1,32,42.27Z"/></svg>
