<svg version="1.1" xmlns="http://www.w3.org/2000/svg" viewBox="0 0 64 64"><defs><style>.cls-1{opacity:0.75;}.cls-2{fill:#fff;}</style></defs><g class="cls-1"><path class="cls-2" d="M35,33.69a2.57,2.57,0,0,0-.84-.67,2.53,2.53,0,0,0-1.07-.22,2.62,2.62,0,0,0-1.55.43,2.59,2.59,0,0,0-.93,1.05v1.4a5,5,0,0,0,.67,2.89,2.3,2.3,0,0,0,2,.94,2,2,0,0,0,1-.26,2.56,2.56,0,0,0,.8-.71,3.61,3.61,0,0,0,.52-1.06,5,5,0,0,0,0-2.73A3.22,3.22,0,0,0,35,33.69Z"/><path class="cls-2" d="M63.17,18.77l-18-18a.72.72,0,0,0-.5-.2H19.19a.72.72,0,0,0-.5.2l-18,18a.7.7,0,0,0-.2.5V44.74a.7.7,0,0,0,.2.49l18,18a.72.72,0,0,0,.5.2H44.66a.72.72,0,0,0,.5-.2l18-18a.7.7,0,0,0,.2-.49V19.27A.7.7,0,0,0,63.17,18.77ZM20,42.84H15.27V27.91l-4.6,1.35V25.71l8.86-3.07H20Zm20-3.94a6.63,6.63,0,0,1-3.69,3.68,7.52,7.52,0,0,1-2.84.53,7.79,7.79,0,0,1-3-.55A6.48,6.48,0,0,1,28.09,41a7.25,7.25,0,0,1-1.56-2.56A9.66,9.66,0,0,1,26,35V33.28a12.48,12.48,0,0,1,.4-3.21,10.93,10.93,0,0,1,1.1-2.69,9.68,9.68,0,0,1,1.69-2.15,10.08,10.08,0,0,1,2.17-1.57,10.29,10.29,0,0,1,2.51-1,11,11,0,0,1,2.76-.34h.75V26h-.25a8.28,8.28,0,0,0-2.26.29,6,6,0,0,0-1.89.88,5.25,5.25,0,0,0-1.41,1.48,5.61,5.61,0,0,0-.78,2.09,5.47,5.47,0,0,1,1.7-1.12,5.64,5.64,0,0,1,2.29-.43,5.53,5.53,0,0,1,2.46.53A5.22,5.22,0,0,1,39,31.22a6.61,6.61,0,0,1,1.11,2.2,9.9,9.9,0,0,1,.37,2.73A7.09,7.09,0,0,1,39.94,38.9Zm15.78-3.51H51v5.42H46.63V35.39H41.88v-4h4.75V26.11H51v5.27h4.73Z"/></g></svg>
