<svg varsion="1.1" xmlns="http://www.w3.org/2000/svg" viewBox="0 0 232.22 55.75"><defs><style>.cls-1{fill:#dc0332;fill-rule:evenodd;}</style></defs><path class="cls-1" d="M28.93,1.54a27,27,0,0,1,17,6L21.09,2.69a27.43,27.43,0,0,1,7.84-1.15ZM53.88,18a26.18,26.18,0,0,1,1.31,3.83L26.1,54.68,12,10l41.89,8Zm1.5,16.74A27.21,27.21,0,0,1,38.63,54L55.38,34.74ZM15.6,52.3a27.14,27.14,0,0,1-11-35.58l11,35.58Z"/><path d="M66,43.1V14.67h8.4a13.83,13.83,0,0,1,5.2.95,11.59,11.59,0,0,1,4,2.73,12.38,12.38,0,0,1,2.62,4.27,15.63,15.63,0,0,1,.94,5.58v1.41a15.8,15.8,0,0,1-.93,5.57,12,12,0,0,1-2.63,4.25,11.81,11.81,0,0,1-4.12,2.72,14.42,14.42,0,0,1-5.37,1ZM71,18.65V39.16h3.22a8.87,8.87,0,0,0,3.54-.66,6.52,6.52,0,0,0,2.53-1.88,8.28,8.28,0,0,0,1.51-3,14.48,14.48,0,0,0,.51-4V28.16q0-4.62-2-7.07a7.13,7.13,0,0,0-5.84-2.44Z"/><path d="M104.31,43.1a3.68,3.68,0,0,1-.32-.87c-.09-.34-.16-.71-.23-1.1a8.43,8.43,0,0,1-1,.92A7.45,7.45,0,0,1,100,43.31a8,8,0,0,1-1.73.19A8.46,8.46,0,0,1,95.31,43,6.92,6.92,0,0,1,93,41.69a6.06,6.06,0,0,1-1.48-2,5.85,5.85,0,0,1-.54-2.5,6.7,6.7,0,0,1,.64-3A5.89,5.89,0,0,1,93.53,32a9.22,9.22,0,0,1,3-1.34,16.7,16.7,0,0,1,4.07-.46h3V28.81a3.71,3.71,0,0,0-.92-2.63,3.62,3.62,0,0,0-2.79-1,4.91,4.91,0,0,0-1.53.23,3.85,3.85,0,0,0-1.16.6,2.68,2.68,0,0,0-.74.91,2.45,2.45,0,0,0-.26,1.14H91.46a5.11,5.11,0,0,1,.61-2.42,6.81,6.81,0,0,1,1.75-2.07,9,9,0,0,1,2.75-1.45,12,12,0,0,1,6.88-.09,7.43,7.43,0,0,1,2.6,1.37,6.19,6.19,0,0,1,1.7,2.26,7.84,7.84,0,0,1,.6,3.18v9.37a10.85,10.85,0,0,0,.8,4.55v.33ZM99.1,39.69a5.1,5.1,0,0,0,1.53-.22,5.78,5.78,0,0,0,1.29-.56,4.76,4.76,0,0,0,1-.82,4.33,4.33,0,0,0,.69-.92v-4h-2.56a7,7,0,0,0-4,.92,3,3,0,0,0-1.32,2.6A3.27,3.27,0,0,0,96,37.89a2.56,2.56,0,0,0,.65,1,3.06,3.06,0,0,0,1,.62A4.18,4.18,0,0,0,99.1,39.69Z"/><path d="M119.27,16.83V22H123v3.52h-3.73V37.28a3.5,3.5,0,0,0,.16,1.18,1.44,1.44,0,0,0,.45.69,1.59,1.59,0,0,0,.69.33,4.06,4.06,0,0,0,.89.09,6,6,0,0,0,1-.07c.3,0,.54-.09.71-.13v3.68q-.57.15-1.32.3a9.36,9.36,0,0,1-1.81.15,7.2,7.2,0,0,1-2.17-.32,4.34,4.34,0,0,1-1.74-1,4.65,4.65,0,0,1-1.14-1.84,8,8,0,0,1-.41-2.77V25.49h-3.48V22h3.48V16.83Z"/><path d="M139.25,43.1a3.68,3.68,0,0,1-.32-.87,10.69,10.69,0,0,1-.22-1.1,9.34,9.34,0,0,1-1.05.92,6.64,6.64,0,0,1-1.27.75,7,7,0,0,1-1.5.51,8,8,0,0,1-1.73.19,8.46,8.46,0,0,1-2.91-.48A6.92,6.92,0,0,1,128,41.69a6.2,6.2,0,0,1-1.48-2,5.85,5.85,0,0,1-.54-2.5,6.7,6.7,0,0,1,.65-3A5.87,5.87,0,0,1,128.47,32a9.22,9.22,0,0,1,3-1.34,16.7,16.7,0,0,1,4.07-.46h3V28.81a3.71,3.71,0,0,0-.92-2.63,3.62,3.62,0,0,0-2.79-1,4.91,4.91,0,0,0-1.53.23,3.85,3.85,0,0,0-1.16.6,2.8,2.8,0,0,0-.74.91,2.45,2.45,0,0,0-.26,1.14H126.4a5.12,5.12,0,0,1,.62-2.42,6.77,6.77,0,0,1,1.74-2.07,9,9,0,0,1,2.75-1.45,12,12,0,0,1,6.88-.09,7.34,7.34,0,0,1,2.6,1.37,6.09,6.09,0,0,1,1.7,2.26,7.84,7.84,0,0,1,.6,3.18v9.37a10.68,10.68,0,0,0,.81,4.55v.33ZM134,39.69a5.1,5.1,0,0,0,1.53-.22,5.41,5.41,0,0,0,1.29-.56,5.1,5.1,0,0,0,1-.82,4.63,4.63,0,0,0,.68-.92v-4H136a7,7,0,0,0-4,.92,3,3,0,0,0-1.33,2.6,3.27,3.27,0,0,0,.21,1.19,2.69,2.69,0,0,0,.65,1,3.06,3.06,0,0,0,1,.62A4.18,4.18,0,0,0,134,39.69Z"/><path d="M152.73,22l.14,2.21a7.29,7.29,0,0,1,2.56-1.92,8.62,8.62,0,0,1,3.53-.68,7.62,7.62,0,0,1,3.46.77,5.26,5.26,0,0,1,2.34,2.47,7.6,7.6,0,0,1,6.48-3.24,9.11,9.11,0,0,1,2.93.44,5.24,5.24,0,0,1,2.18,1.39,6.36,6.36,0,0,1,1.37,2.43,11.68,11.68,0,0,1,.48,3.57V43.1h-4.75V29.39a6.05,6.05,0,0,0-.26-1.92,2.92,2.92,0,0,0-.76-1.2,2.83,2.83,0,0,0-1.2-.63,6.74,6.74,0,0,0-1.57-.17,3.93,3.93,0,0,0-2.64.87,4.5,4.5,0,0,0-1.44,2.27,1.48,1.48,0,0,0,0,.21,1.41,1.41,0,0,1,0,.2V43.1h-4.75V29.45a5.62,5.62,0,0,0-.26-1.87,3,3,0,0,0-.76-1.23,2.85,2.85,0,0,0-1.2-.68,6,6,0,0,0-1.59-.2,4.63,4.63,0,0,0-2.5.62,4.36,4.36,0,0,0-1.54,1.7V43.1h-4.74V22Z"/><path d="M195.7,43.1a3.68,3.68,0,0,1-.32-.87c-.09-.34-.16-.71-.23-1.1a8.43,8.43,0,0,1-1,.92,7,7,0,0,1-1.27.75,7.25,7.25,0,0,1-1.51.51,7.9,7.9,0,0,1-1.73.19,8.54,8.54,0,0,1-2.91-.48,7,7,0,0,1-2.27-1.33,6.23,6.23,0,0,1-1.49-2,6,6,0,0,1-.53-2.5,6.7,6.7,0,0,1,.64-3A5.89,5.89,0,0,1,184.92,32a9.16,9.16,0,0,1,3-1.34,16.73,16.73,0,0,1,4.08-.46h3V28.81a3.71,3.71,0,0,0-.91-2.63,3.66,3.66,0,0,0-2.8-1,4.85,4.85,0,0,0-1.52.23,3.73,3.73,0,0,0-1.16.6,2.68,2.68,0,0,0-.74.91,2.46,2.46,0,0,0-.27,1.14h-4.74a5.11,5.11,0,0,1,.61-2.42,6.67,6.67,0,0,1,1.75-2.07A8.91,8.91,0,0,1,188,22.13a12,12,0,0,1,6.89-.09,7.43,7.43,0,0,1,2.6,1.37,6.17,6.17,0,0,1,1.69,2.26,7.68,7.68,0,0,1,.61,3.18v9.37a10.85,10.85,0,0,0,.8,4.55v.33Zm-5.22-3.41a5.12,5.12,0,0,0,1.54-.22,5.51,5.51,0,0,0,1.28-.56,4.83,4.83,0,0,0,1-.82,4.27,4.27,0,0,0,.68-.92v-4h-2.55a7,7,0,0,0-4,.92,3,3,0,0,0-1.33,2.6,3.07,3.07,0,0,0,.22,1.19,2.66,2.66,0,0,0,.64,1,3.21,3.21,0,0,0,1.05.62A4.16,4.16,0,0,0,190.48,39.69Z"/><path d="M215.78,26.31c-.32,0-.63-.09-.95-.12s-.65,0-1,0a5.17,5.17,0,0,0-2.79.67,4,4,0,0,0-1.6,1.83V43.1H204.7V22h4.53l.12,2.36a6.17,6.17,0,0,1,2-2,5.27,5.27,0,0,1,2.79-.73,5.37,5.37,0,0,1,.92.09,4.11,4.11,0,0,1,.75.18Z"/><path d="M225.7,16.83V22h3.73v3.52H225.7V37.28a3.81,3.81,0,0,0,.15,1.18,1.6,1.6,0,0,0,.45.69,1.68,1.68,0,0,0,.7.33,4,4,0,0,0,.88.09,5.82,5.82,0,0,0,1-.07,6.28,6.28,0,0,0,.71-.13v3.68c-.37.1-.81.2-1.31.3a9.43,9.43,0,0,1-1.81.15,7.27,7.27,0,0,1-2.18-.32,4.34,4.34,0,0,1-1.74-1,4.77,4.77,0,0,1-1.14-1.84,8.26,8.26,0,0,1-.41-2.77V25.49h-3.48V22H221V16.83Z"/></svg>
